<svg xmlns="http://www.w3.org/2000/svg" width="32" height="32" viewBox="0 0 32 32" fill="none">
<path d="M26.517 8.62888L17.1247 3.20623C16.4286 2.8043 15.5709 2.8043 14.8747 3.20623L5.48242 8.62888C4.78627 9.0308 4.35742 9.77359 4.35742 10.5774V21.4227C4.35742 22.2266 4.78627 22.9694 5.48242 23.3713L14.8747 28.7939C15.5709 29.1959 16.4286 29.1959 17.1247 28.7939L26.517 23.3713C27.2132 22.9694 27.642 22.2266 27.642 21.4227V10.5774C27.642 9.77359 27.2132 9.0308 26.517 8.62888Z" fill="white" stroke="white" stroke-width="2.5"/>
<path d="M24.8906 9.13276C25.2 9.31139 25.3906 9.64201 25.3906 9.99927C25.3906 10.3565 25.2 10.6871 24.8906 10.8658L16.498 15.7112C16.1886 15.8899 15.998 16.22 15.998 16.5773V26.2666C15.998 27.0364 15.1647 27.5175 14.498 27.1326L6.10742 22.2883C5.79802 22.1096 5.60742 21.7795 5.60742 21.4222V10.5769C5.60742 10.2197 5.79802 9.88955 6.10742 9.71092L15.4997 4.28827C15.8091 4.10964 16.1903 4.10964 16.4997 4.28827L24.8906 9.13276Z" fill="url(#paint0_linear_55_9)"/>
<defs>
<linearGradient id="paint0_linear_55_9" x1="2.2183" y1="15.5019" x2="20.965" y2="4.60225" gradientUnits="userSpaceOnUse">
<stop offset="0.09677" stop-color="#0095D5"/>
<stop offset="0.30073" stop-color="#238AD9"/>
<stop offset="0.62106" stop-color="#557BDE"/>
<stop offset="0.86432" stop-color="#7472E2"/>
<stop offset="1" stop-color="#806EE3"/>
</linearGradient>
</defs>
</svg>