<svg width="32" height="32" viewBox="0 0 32 32" xmlns="http://www.w3.org/2000/svg">
<path fill-rule="evenodd" clip-rule="evenodd" d="M27.142 7.54635L17.7497 2.1237C16.6668 1.49848 15.3326 1.49848 14.2497 2.1237L4.85742 7.54635C3.77452 8.17156 3.10742 9.32701 3.10742 10.5774V21.4227C3.10742 22.6732 3.77452 23.8286 4.85742 24.4538L14.2497 29.8765C15.3326 30.5017 16.6668 30.5017 17.7497 29.8765L27.142 24.4538C28.2249 23.8286 28.892 22.6732 28.892 21.4227V10.5774C28.892 9.327 28.2249 8.17156 27.142 7.54635ZM25.3906 9.99927C25.3906 9.64201 25.2 9.31139 24.8906 9.13276L16.4997 4.28827C16.1903 4.10964 15.8091 4.10964 15.4997 4.28827L6.10742 9.71092C5.79802 9.88955 5.60742 10.2197 5.60742 10.5769V21.4222C5.60742 21.7795 5.79802 22.1096 6.10742 22.2883L14.498 27.1326C15.1647 27.5175 15.998 27.0364 15.998 26.2666V16.5773C15.998 16.22 16.1886 15.8899 16.498 15.7112L24.8906 10.8658C25.2 10.6872 25.3906 10.3565 25.3906 9.99927Z"/>
</svg>
