<svg width="48" height="59" viewBox="0 0 48 59" fill="none" xmlns="http://www.w3.org/2000/svg">
<path d="M26.5173 35.6288L17.125 30.2061C16.4288 29.8042 15.5712 29.8042 14.875 30.2061L5.4827 35.6288C4.78654 36.0307 4.3577 36.7735 4.3577 37.5774V48.4226C4.3577 49.2265 4.78654 49.9693 5.4827 50.3712L14.875 55.7939C15.5712 56.1958 16.4288 56.1958 17.125 55.7939L26.5173 50.3712C27.2135 49.9693 27.6423 49.2265 27.6423 48.4226V37.5774C27.6423 36.7735 27.2135 36.0307 26.5173 35.6288Z" fill="white" stroke="white" stroke-width="2.5"/>
<path d="M42.5173 8.62879L33.125 3.20614C32.4288 2.80422 31.5712 2.80422 30.875 3.20614L21.4827 8.62879C20.7865 9.03072 20.3577 9.7735 20.3577 10.5774V21.4226C20.3577 22.2265 20.7865 22.9693 21.4827 23.3712L30.875 28.7939C31.5712 29.1958 32.4288 29.1958 33.125 28.7939L42.5173 23.3712C43.2135 22.9693 43.6423 22.2265 43.6423 21.4226V10.5774C43.6423 9.7735 43.2135 9.03072 42.5173 8.62879Z" stroke="white" stroke-width="2.5"/>
</svg>
