<svg width="105" height="105" viewBox="0 0 105 105" fill="none" xmlns="http://www.w3.org/2000/svg">
<path d="M52.7485 5.47998C26.6885 5.47998 5.47852 26.7 5.47852 52.75C5.47852 78.8 26.6985 100.02 52.7485 100.02C78.7985 100.02 100.019 78.8 100.019 52.75C100.019 26.7 78.7985 5.47998 52.7485 5.47998ZM52.6785 9.67998C53.4867 9.70091 54.2548 10.0378 54.819 10.6188C55.3832 11.1998 55.6988 11.9789 55.6985 12.79C55.6985 13.6148 55.3709 14.4058 54.7876 14.9891C54.2044 15.5723 53.4133 15.9 52.5885 15.9C51.7637 15.9 50.9727 15.5723 50.3894 14.9891C49.8062 14.4058 49.4785 13.6148 49.4785 12.79C49.4783 12.3739 49.5617 11.962 49.7236 11.5787C49.8854 11.1954 50.1226 10.8484 50.421 10.5584C50.7194 10.2684 51.0729 10.0413 51.4607 9.89038C51.8485 9.73948 52.2626 9.66794 52.6785 9.67998ZM59.7985 14.8C65.2582 15.8226 70.4298 18.0214 74.9541 21.2437C79.4785 24.4661 83.2472 28.6347 85.9985 33.46L82.3285 41.74C81.6985 43.17 82.3485 44.85 83.7685 45.49L90.8285 48.62C91.0475 50.8268 91.0743 53.0485 90.9085 55.26H86.9785C86.5885 55.26 86.4285 55.52 86.4285 55.9V57.7C86.4285 61.94 84.0385 62.87 81.9385 63.1C79.9385 63.33 77.7285 62.26 77.4485 61.04C76.2685 54.41 74.3085 53 71.2085 50.55C75.0585 48.11 79.0585 44.5 79.0585 39.68C79.0585 34.47 75.4885 31.19 73.0585 29.58C69.6385 27.33 65.8585 26.88 64.8385 26.88H24.2385C29.8525 20.6084 37.3776 16.3626 45.6485 14.8L50.4385 19.82C51.5185 20.95 53.3085 21 54.4385 19.91L59.7985 14.8ZM15.5985 37.82C16.4076 37.8434 17.1758 38.1814 17.7397 38.7621C18.3036 39.3428 18.6189 40.1205 18.6185 40.93C18.6185 41.7548 18.2909 42.5458 17.7076 43.1291C17.1244 43.7123 16.3333 44.04 15.5085 44.04C14.6837 44.04 13.8927 43.7123 13.3094 43.1291C12.7262 42.5458 12.3985 41.7548 12.3985 40.93C12.3983 40.5139 12.4817 40.102 12.6436 39.7187C12.8054 39.3354 13.0426 38.9884 13.341 38.6984C13.6394 38.4084 13.9929 38.1813 14.3807 38.0304C14.7685 37.8795 15.1826 37.8079 15.5985 37.82ZM89.7485 37.96C90.5576 37.9834 91.3258 38.3214 91.8897 38.9021C92.4536 39.4828 92.7689 40.2605 92.7685 41.07C92.7685 41.8948 92.4409 42.6858 91.8576 43.2691C91.2744 43.8523 90.4833 44.18 89.6585 44.18C88.8337 44.18 88.0426 43.8523 87.4594 43.2691C86.8762 42.6858 86.5485 41.8948 86.5485 41.07C86.5483 40.6539 86.6317 40.242 86.7936 39.8587C86.9554 39.4754 87.1926 39.1284 87.491 38.8384C87.7894 38.5484 88.1429 38.3213 88.5307 38.1704C88.9185 38.0195 89.3326 37.9479 89.7485 37.96ZM21.4585 38.46H26.8785V62.9H15.9385C14.5874 58.1554 14.1663 53.1944 14.6985 48.29L21.3985 45.31C22.8285 44.67 23.4785 43 22.8385 41.57L21.4585 38.46ZM44.0785 38.72H56.9885C57.6585 38.72 61.6985 39.49 61.6985 42.52C61.6985 45.03 58.5985 45.93 56.0485 45.93H44.0685L44.0785 38.72ZM44.0785 56.28H53.9685C54.8685 56.28 58.7985 56.54 60.0485 61.56C60.4385 63.1 61.3085 68.12 61.8985 69.73C62.4885 71.53 64.8785 75.13 67.4285 75.13H83.5685C82.4868 76.5785 81.3039 77.9486 80.0285 79.23L73.4585 77.82C71.9285 77.49 70.4185 78.47 70.0885 80L68.5285 87.28C63.5121 89.5524 58.0642 90.7154 52.5571 90.6895C47.05 90.6636 41.6134 89.4495 36.6185 87.13L35.0585 79.85C34.7285 78.32 33.2285 77.34 31.6985 77.67L25.2685 79.05C24.0753 77.8191 22.9661 76.5095 21.9485 75.13H53.2185C53.5685 75.13 53.8085 75.07 53.8085 74.74V63.68C53.8085 63.36 53.5685 63.29 53.2185 63.29H44.0685L44.0785 56.28ZM29.6485 81.61C30.4576 81.6334 31.2258 81.9714 31.7897 82.5521C32.3536 83.1328 32.6689 83.9105 32.6685 84.72C32.6685 85.5448 32.3409 86.3358 31.7576 86.9191C31.1744 87.5023 30.3833 87.83 29.5585 87.83C28.7337 87.83 27.9426 87.5023 27.3594 86.9191C26.7762 86.3358 26.4485 85.5448 26.4485 84.72C26.4483 84.3039 26.5317 83.892 26.6936 83.5087C26.8554 83.1254 27.0926 82.7784 27.391 82.4884C27.6894 82.1984 28.0429 81.9713 28.4307 81.8204C28.8185 81.6695 29.2326 81.5979 29.6485 81.61ZM75.6985 81.75C76.5076 81.7734 77.2758 82.1114 77.8397 82.6921C78.4036 83.2728 78.7189 84.0505 78.7185 84.86C78.7185 85.6848 78.3909 86.4758 77.8076 87.0591C77.2244 87.6423 76.4333 87.97 75.6085 87.97C74.7837 87.97 73.9927 87.6423 73.4094 87.0591C72.8262 86.4758 72.4985 85.6848 72.4985 84.86C72.4983 84.4439 72.5817 84.032 72.7436 83.6487C72.9055 83.2654 73.1426 82.9184 73.441 82.6284C73.7394 82.3384 74.0929 82.1113 74.4807 81.9604C74.8685 81.8095 75.2826 81.7379 75.6985 81.75Z" fill="black"/>
<path fill-rule="evenodd" clip-rule="evenodd" d="M97.38 52.75C97.38 64.5866 92.6779 75.9384 84.3082 84.3082C75.9384 92.6779 64.5866 97.38 52.75 97.38C40.9134 97.38 29.5616 92.6779 21.1918 84.3082C12.8221 75.9384 8.12 64.5866 8.12 52.75C8.12 40.9134 12.8221 29.5616 21.1918 21.1918C29.5616 12.8221 40.9134 8.12 52.75 8.12C64.5866 8.12 75.9384 12.8221 84.3082 21.1918C92.6779 29.5616 97.38 40.9134 97.38 52.75ZM96.54 48.44L103.5 52.75L96.54 57.06L102.52 62.65L94.86 65.52L99.64 72.17L91.55 73.49L94.95 80.95L86.76 80.66L88.64 88.64L80.66 86.76L80.95 94.95L73.49 91.55L72.17 99.64L65.52 94.86L62.65 102.52L57.06 96.54L52.75 103.5L48.44 96.54L42.85 102.52L39.98 94.86L33.33 99.64L32.01 91.55L24.55 94.95L24.84 86.76L16.86 88.64L18.74 80.66L10.55 80.95L13.95 73.49L5.86 72.17L10.64 65.52L2.98 62.65L8.96 57.06L2 52.75L8.96 48.44L2.98 42.85L10.64 39.98L5.86 33.33L13.95 32.01L10.55 24.55L18.74 24.84L16.86 16.86L24.84 18.74L24.55 10.55L32.01 13.95L33.33 5.86L39.98 10.64L42.85 2.98L48.44 8.96L52.75 2L57.06 8.96L62.65 2.98L65.52 10.64L72.17 5.86L73.49 13.95L80.95 10.55L80.66 18.74L88.64 16.86L86.76 24.84L94.95 24.55L91.55 32.01L99.64 33.33L94.86 39.98L102.52 42.85L96.54 48.44Z" fill="black" stroke="black" stroke-width="3" stroke-linecap="round" stroke-linejoin="round"/>
</svg>
